<svg width="767" height="243" viewBox="0 0 767 243" fill="none" xmlns="http://www.w3.org/2000/svg">
<path d="M67 10C67 4.47715 71.4772 0 77 0H194C199.523 0 204 4.47715 204 10V66C204 71.5228 199.523 76 194 76H77C71.4772 76 67 71.5228 67 66V10Z" fill="#212223"/>
<path d="M10 108H127C132.523 108 137 103.523 137 98V96C137 90.4772 132.523 86 127 86H67.0824C62.839 86 59.0577 83.3219 57.6493 79.3191L43.3507 38.6809C41.9423 34.6781 38.161 32 33.9176 32H10C4.47715 32 0 36.4772 0 42V98C0 103.523 4.47715 108 10 108Z" fill="#212223"/>
<path fill-rule="evenodd" clip-rule="evenodd" d="M204 83C189.246 94.9468 176.368 99.5345 147 102.5V180.5C147 196.24 159.76 209 175.5 209C191.24 209 204 196.24 204 180.5V83ZM175.5 192C183.508 192 190 185.508 190 177.5C190 169.492 183.508 163 175.5 163C167.492 163 161 169.492 161 177.5C161 185.508 167.492 192 175.5 192Z" fill="#212223"/>
<path fill-rule="evenodd" clip-rule="evenodd" d="M137 117C122.246 128.947 109.368 133.535 80 136.5V214.5C80 230.24 92.7599 243 108.5 243C124.24 243 137 230.24 137 214.5V117ZM108.5 226C116.508 226 123 219.508 123 211.5C123 203.492 116.508 197 108.5 197C100.492 197 94 203.492 94 211.5C94 219.508 100.492 226 108.5 226Z" fill="#212223"/>
<path d="M332.306 128.598C327.777 133.077 322.604 136.632 316.784 139.265C310.965 141.897 304.852 143.436 298.445 143.883C293.531 144.226 288.741 143.906 284.074 142.924C279.458 141.987 275.07 140.502 270.911 138.468C266.796 136.383 262.986 133.817 259.482 130.769C255.978 127.722 252.908 124.305 250.272 120.519C247.681 116.682 245.577 112.545 243.961 108.107C242.39 103.618 241.433 98.9163 241.09 94.0025C240.748 89.0888 241.043 84.3 241.977 79.6361C242.958 74.969 244.468 70.5796 246.505 66.4682C248.587 62.3052 251.151 58.4716 254.199 54.9675C257.246 51.4633 260.665 48.4174 264.454 45.8297C268.288 43.1905 272.425 41.0868 276.866 39.5186C281.352 37.8989 286.052 36.9179 290.966 36.5754C297.373 36.1288 303.64 36.8053 309.768 38.605C315.893 40.3564 321.51 43.1599 326.62 47.0152L316.895 65.8461C313.632 62.7818 309.868 60.5269 305.604 59.0814C301.337 57.5877 296.94 56.9987 292.411 57.3143C287.835 57.6333 283.608 58.7993 279.73 60.8122C275.852 62.8252 272.524 65.4291 269.746 68.6241C266.964 71.7709 264.847 75.4281 263.394 79.5956C261.939 83.7149 261.369 88.0387 261.685 92.5671C262 97.0954 263.164 101.298 265.177 105.176C267.187 109.005 269.789 112.309 272.984 115.088C276.179 117.867 279.836 119.984 283.956 121.439C288.075 122.895 292.423 123.463 297 123.144C301.528 122.829 305.803 121.659 309.825 119.636C313.844 117.565 317.257 114.786 320.063 111.298L332.306 128.598Z" fill="#212223"/>
<path d="M362.746 137.15L343.019 138.525L337.624 61.1337L342.393 60.8013L349.537 69.5251C352.515 66.4131 355.973 63.9452 359.912 62.1216C363.848 60.2498 367.984 59.1628 372.32 58.8606L389.735 57.6468L391.105 77.3018L373.69 78.5156C371.618 78.66 369.694 79.1814 367.917 80.0798C366.14 80.9781 364.624 82.1488 363.369 83.5917C362.115 85.0346 361.166 86.6982 360.522 88.5825C359.879 90.4669 359.63 92.4448 359.774 94.5163L362.746 137.15Z" fill="#212223"/>
<path d="M477.785 129.132L473.016 129.464L464.616 119.376C462.855 121.193 460.966 122.922 458.951 124.563C456.98 126.153 454.877 127.582 452.642 128.851C450.404 130.072 448.078 131.082 445.664 131.879C443.299 132.673 440.864 133.158 438.359 133.332C432.916 133.712 427.721 133.154 422.776 131.659C417.88 130.161 413.504 127.803 409.649 124.587C405.839 121.319 402.722 117.227 400.298 112.314C397.874 107.4 396.437 101.715 395.987 95.2598C395.567 89.238 396.218 83.6499 397.941 78.4954C399.66 73.2927 402.176 68.7606 405.489 64.8991C408.85 61.0342 412.846 57.948 417.478 55.6404C422.154 53.2814 427.214 51.9121 432.658 51.5327C435.163 51.3581 437.666 51.4983 440.166 51.9533C442.667 52.4083 445.112 53.1092 447.501 54.0561C449.891 55.0029 452.174 56.1508 454.349 57.4998C456.573 58.8455 458.661 60.3217 460.612 61.9283L467.632 52.2173L472.401 51.8849L477.785 129.132ZM455.169 91.1347C454.981 88.437 454.269 85.8725 453.035 83.4414C451.845 80.9586 450.292 78.8159 448.375 77.0132C446.455 75.1623 444.251 73.7427 441.761 72.7544C439.317 71.7146 436.746 71.2887 434.048 71.4767C431.35 71.6648 428.829 72.3004 426.484 73.3836C424.187 74.4634 422.21 75.9567 420.552 77.8633C418.942 79.7667 417.723 82.0784 416.896 84.7985C416.066 87.4704 415.768 90.4924 416.003 93.8646C416.238 97.2368 416.954 100.212 418.15 102.791C419.343 105.322 420.869 107.419 422.727 109.08C424.634 110.738 426.8 111.943 429.224 112.694C431.696 113.441 434.282 113.721 436.979 113.533C439.677 113.345 442.166 112.59 444.446 111.27C446.771 109.897 448.757 108.186 450.405 106.134C452.05 104.035 453.291 101.698 454.128 99.122C455.01 96.4949 455.357 93.8325 455.169 91.1347Z" fill="#212223"/>
<path d="M512.615 126.704L492.888 128.079L487.494 50.6877L492.263 50.3553L499.29 57.4171C502.268 54.3051 505.703 51.8389 509.594 50.0186C513.53 48.1468 517.689 47.0582 522.073 46.7526C526.794 46.4236 531.314 47.0283 535.633 48.5668C539.948 50.0571 543.783 52.2828 547.135 55.2441C550.485 58.1571 553.199 61.6712 555.277 65.7863C557.399 69.8498 558.627 74.2662 558.959 79.0355L562.042 123.259L542.315 124.634L539.232 80.4105C539.091 78.3871 538.573 76.5111 537.678 74.7824C536.78 73.0055 535.609 71.4897 534.166 70.2348C532.723 68.9799 531.084 68.0292 529.248 67.3827C527.411 66.7361 525.482 66.4834 523.458 66.6244C521.387 66.7688 519.463 67.2902 517.686 68.1886C515.909 69.0869 514.393 70.2576 513.138 71.7005C511.883 73.1433 510.934 74.807 510.291 76.6913C509.645 78.5275 509.392 80.4572 509.533 82.4805L512.615 126.704Z" fill="#212223"/>
<path d="M596.005 120.892L576.133 122.277L568.593 14.1023L588.465 12.7172L593.219 80.9316L620.031 41.595L642.721 40.0135L619.314 74.0299L648.105 117.261L625.415 118.842L607.775 91.8255L595.315 110.992L596.005 120.892Z" fill="#212223"/>
<path d="M527.958 173.387C528.361 179.167 527.702 184.635 525.979 189.79C524.254 194.896 521.736 199.404 518.426 203.314C515.113 207.175 511.122 210.334 506.452 212.789C501.827 215.193 496.769 216.586 491.277 216.969C485.834 217.349 480.631 216.67 475.669 214.935C470.752 213.147 466.361 210.573 462.496 207.212C458.676 203.799 455.558 199.684 453.14 194.867C450.72 190.001 449.308 184.678 448.905 178.897C448.495 173.019 449.151 167.504 450.874 162.349C452.596 157.195 455.114 152.687 458.427 148.825C461.785 144.912 465.776 141.754 470.401 139.35C475.074 136.942 480.132 135.549 485.576 135.17C491.068 134.787 496.267 135.417 501.174 137.06C506.126 138.651 510.51 141.129 514.327 144.493C518.14 147.81 521.259 151.925 523.683 156.839C526.103 161.704 527.529 167.22 527.958 173.387ZM508.087 174.772C507.865 171.592 507.135 168.763 505.898 166.283C504.705 163.753 503.153 161.634 501.243 159.928C499.33 158.173 497.135 156.898 494.659 156.102C492.228 155.255 489.664 154.926 486.966 155.114C484.268 155.302 481.75 155.985 479.412 157.165C477.119 158.293 475.146 159.859 473.495 161.862C471.888 163.813 470.67 166.125 469.839 168.797C469.006 171.42 468.699 174.322 468.921 177.502C469.129 180.488 469.828 183.223 471.018 185.706C472.207 188.189 473.735 190.309 475.6 192.067C477.513 193.821 479.689 195.17 482.127 196.114C484.609 197.006 487.2 197.358 489.897 197.17C492.595 196.982 495.089 196.299 497.379 195.123C499.717 193.944 501.714 192.377 503.368 190.422C505.023 188.467 506.266 186.153 507.096 183.482C507.975 180.806 508.305 177.903 508.087 174.772Z" fill="#212223"/>
<path d="M616.549 206.785L611.78 207.118L603.38 197.029C601.619 198.846 599.731 200.575 597.715 202.217C595.744 203.806 593.641 205.236 591.406 206.505C589.168 207.726 586.842 208.735 584.429 209.532C582.064 210.327 579.629 210.811 577.123 210.986C571.68 211.365 566.485 210.807 561.54 209.313C556.644 207.814 552.268 205.457 548.413 202.24C544.603 198.972 541.486 194.881 539.062 189.967C536.638 185.053 535.201 179.368 534.751 172.913C534.331 166.891 534.982 161.303 536.705 156.149C538.424 150.946 540.94 146.414 544.253 142.553C547.614 138.688 551.61 135.601 556.242 133.294C560.918 130.935 565.978 129.566 571.422 129.186C573.927 129.011 576.43 129.152 578.93 129.607C581.431 130.062 583.876 130.763 586.266 131.709C588.655 132.656 590.938 133.804 593.113 135.153C595.337 136.499 597.425 137.975 599.376 139.582L606.396 129.871L611.165 129.538L616.549 206.785ZM593.933 168.788C593.745 166.09 593.034 163.526 591.799 161.095C590.609 158.612 589.056 156.469 587.139 154.667C585.219 152.816 583.015 151.396 580.525 150.408C578.081 149.368 575.51 148.942 572.812 149.13C570.114 149.318 567.593 149.954 565.248 151.037C562.951 152.117 560.974 153.61 559.316 155.517C557.706 157.42 556.487 159.732 555.66 162.452C554.83 165.124 554.532 168.146 554.767 171.518C555.002 174.89 555.718 177.866 556.914 180.445C558.107 182.976 559.633 185.072 561.492 186.734C563.398 188.392 565.564 189.596 567.988 190.347C570.461 191.094 573.046 191.374 575.743 191.186C578.441 190.998 580.93 190.244 583.21 188.923C585.535 187.551 587.521 185.839 589.169 183.788C590.814 181.688 592.055 179.351 592.892 176.775C593.774 174.148 594.121 171.486 593.933 168.788Z" fill="#212223"/>
<path fill-rule="evenodd" clip-rule="evenodd" d="M440.236 196.202C441.958 191.047 442.608 185.435 442.185 179.365C441.772 173.44 440.356 168.068 437.939 163.251C435.518 158.385 432.398 154.246 428.578 150.833C424.758 147.42 420.369 144.87 415.41 143.183C410.497 141.443 405.294 140.765 399.802 141.148C398.02 141.272 396.202 141.593 394.35 142.109C392.495 142.577 390.7 143.211 388.964 144.009C387.277 144.805 385.7 145.786 384.232 146.953C382.812 148.117 381.62 149.41 380.654 150.833L378.136 114.703L366.13 115.539C366.13 115.539 367.452 134.51 367.78 139.207C368.107 143.904 360.492 147.01 360.492 147.01L363.131 184.875C363.547 190.849 364.966 196.268 367.386 201.134C369.804 205.952 372.921 210.043 376.738 213.407C380.602 216.769 384.99 219.295 389.9 220.985C394.859 222.673 400.06 223.327 405.503 222.948C410.995 222.565 416.057 221.22 420.689 218.912C425.368 216.601 429.366 213.539 432.683 209.726C435.996 205.864 438.513 201.356 440.236 196.202ZM420.144 172.551C421.382 175.03 422.105 177.763 422.313 180.75C422.521 183.737 422.184 186.544 421.302 189.171C420.468 191.795 419.226 194.108 417.574 196.111C415.923 198.114 413.931 199.754 411.6 201.03C409.313 202.254 406.821 202.96 404.123 203.148C401.426 203.336 398.835 202.984 396.353 202.092C393.915 201.149 391.74 199.8 389.826 198.045C387.913 196.291 386.361 194.172 385.172 191.689C383.982 189.207 383.283 186.472 383.075 183.485C382.887 180.787 383.211 178.151 384.048 175.575C384.882 172.951 386.123 170.614 387.771 168.563C389.416 166.463 391.378 164.753 393.658 163.433C395.983 162.06 398.494 161.28 401.192 161.092C403.89 160.904 406.456 161.258 408.89 162.153C411.373 163.045 413.571 164.368 415.484 166.123C417.398 167.877 418.951 170.02 420.144 172.551Z" fill="#212223"/>
<path fill-rule="evenodd" clip-rule="evenodd" d="M766.274 196.349L761.505 196.682L753.105 186.593C751.344 188.41 749.455 190.14 747.44 191.781C745.469 193.37 743.366 194.8 741.131 196.069C738.893 197.29 736.567 198.299 734.154 199.097C731.788 199.891 729.353 200.375 726.848 200.55C721.405 200.929 716.204 200.275 711.245 198.588C706.332 196.848 701.942 194.298 698.077 190.937C694.257 187.524 691.139 183.409 688.721 178.592C686.301 173.726 684.886 168.354 684.476 162.477C684.289 159.789 684.31 155.129 684.996 150.39C695.201 149.616 700.817 149.287 708.999 144.485C707.644 146.254 706.134 149.784 705.395 152.16C704.565 154.832 704.264 157.806 704.492 161.082C704.69 163.924 705.384 166.587 706.574 169.07C707.763 171.552 709.292 173.697 711.161 175.503C713.078 177.305 715.255 178.679 717.693 179.622C720.179 180.562 722.771 180.938 725.468 180.75C728.166 180.562 730.655 179.808 732.935 178.487C735.26 177.115 737.246 175.403 738.894 173.352C740.539 171.253 741.78 168.915 742.617 166.339C743.499 163.712 743.846 161.05 743.658 158.352C743.47 155.654 742.758 153.09 741.524 150.659C740.334 148.176 738.781 146.033 736.864 144.231C734.944 142.38 732.74 140.96 730.25 139.972C727.806 138.932 725.235 138.506 722.537 138.694C721.323 138.779 718.459 138.782 717.317 139.058C722.009 134.556 726.901 128.38 730.046 118.92C731.873 119.422 735.592 121.108 737.207 122.06C738.822 123.012 740.214 124.223 741.381 125.69L738.863 89.5597L758.735 88.1746L766.274 196.349Z" fill="#212223"/>
<path d="M675.222 125.028L686.216 124.407C688.143 124.273 689.976 123.83 691.715 123.08C693.453 122.329 695.031 121.348 696.447 120.136C697.911 118.92 699.168 117.501 700.217 115.879C701.269 114.305 702.094 112.602 702.692 110.769C700.588 111.836 698.436 112.905 696.236 113.978C694.083 115.048 691.875 115.662 689.611 115.82C684.842 116.152 680.303 115.621 675.994 114.227C671.686 112.834 667.834 110.706 664.44 107.844C661.09 104.931 658.346 101.322 656.206 97.018C654.111 92.6621 652.871 87.7141 652.485 82.1741L649.503 39.3955L669.158 38.0256L672.14 80.8041C672.331 83.55 672.884 85.9319 673.8 87.9496C674.76 89.9159 675.963 91.5505 677.409 92.8535C678.852 94.1084 680.488 95.0109 682.317 95.5611C684.195 96.108 686.17 96.3092 688.241 96.1648C690.264 96.0238 692.135 95.4335 693.854 94.3939C695.618 93.3029 697.12 91.9395 698.361 90.3039C699.603 88.6684 700.542 86.8602 701.178 84.8795C701.811 82.8507 702.056 80.8005 701.911 78.729L698.93 35.9505L718.801 34.5654L723.516 102.202C723.847 107.649 723.143 112.829 721.404 117.743C719.665 122.656 717.113 127.021 713.749 130.838C710.432 134.652 706.462 137.76 701.837 140.164C697.212 142.568 692.178 143.96 686.734 144.339L676.607 144.9L662.323 145.723C660.252 145.867 658.328 146.389 656.551 147.287C654.774 148.186 653.258 149.356 652.003 150.799C650.748 152.242 649.799 153.906 649.156 155.79C648.513 157.674 648.263 159.652 648.408 161.724L651.379 204.358L631.652 205.733L626.258 128.341L631.027 128.009L638.17 136.733C641.148 133.62 644.607 131.153 648.546 129.329C652.482 127.457 656.618 126.37 660.953 126.068L675.222 125.028Z" fill="#212223"/>
</svg>
